<svg width="3" height="11" viewBox="0 0 3 11" fill="none" xmlns="http://www.w3.org/2000/svg">
<path d="M1.5 8.14815C1.10218 8.14815 0.720644 8.29838 0.43934 8.56579C0.158035 8.83321 0 9.1959 0 9.57407C0 9.95225 0.158035 10.3149 0.43934 10.5824C0.720644 10.8498 1.10218 11 1.5 11C1.89782 11 2.27936 10.8498 2.56066 10.5824C2.84196 10.3149 3 9.95225 3 9.57407C3 9.1959 2.84196 8.83321 2.56066 8.56579C2.27936 8.29838 1.89782 8.14815 1.5 8.14815ZM1.5 4.07407C1.10218 4.07407 0.720644 4.22431 0.43934 4.49172C0.158035 4.75913 0 5.12182 0 5.5C0 5.87818 0.158035 6.24087 0.43934 6.50828C0.720644 6.7757 1.10218 6.92593 1.5 6.92593C1.89782 6.92593 2.27936 6.7757 2.56066 6.50828C2.84196 6.24087 3 5.87818 3 5.5C3 5.12182 2.84196 4.75913 2.56066 4.49172C2.27936 4.22431 1.89782 4.07407 1.5 4.07407ZM3 1.42593C3 1.04775 2.84196 0.685057 2.56066 0.417644C2.27936 0.150231 1.89782 0 1.5 0C1.10218 0 0.720644 0.150231 0.43934 0.417644C0.158035 0.685057 0 1.04775 0 1.42593C0 1.8041 0.158035 2.16679 0.43934 2.43421C0.720644 2.70162 1.10218 2.85185 1.5 2.85185C1.89782 2.85185 2.27936 2.70162 2.56066 2.43421C2.84196 2.16679 3 1.8041 3 1.42593Z" fill="#1F4386"/>
</svg>
