<svg width="21" height="21" viewBox="0 0 21 21" fill="none" xmlns="http://www.w3.org/2000/svg">
<path d="M21 10.5391C21 4.7179 16.2996 0 10.5 0C4.70039 0 0 4.7179 0 10.5391C0 15.4793 3.39199 19.6291 7.96523 20.7695V13.7585H5.79961V10.5391H7.96523V9.15174C7.96523 5.56597 9.58125 3.90276 13.0922 3.90276C13.7566 3.90276 14.9051 4.0345 15.3768 4.16624V7.08096C15.1307 7.05626 14.7 7.0398 14.1627 7.0398C12.44 7.0398 11.7756 7.69437 11.7756 9.39463V10.5391H15.2045L14.6139 13.7585H11.7715V21C16.9723 20.3701 21 15.9281 21 10.5391Z" fill="#1F4386"/>
</svg>
