<svg width="32" height="32" viewBox="0 0 32 32" fill="none" xmlns="http://www.w3.org/2000/svg">
<path d="M16 2.5C13.33 2.5 10.7199 3.29176 8.49981 4.77516C6.27974 6.25856 4.54942 8.36697 3.52763 10.8338C2.50585 13.3006 2.2385 16.015 2.7594 18.6337C3.28031 21.2525 4.56606 23.6579 6.45406 25.5459C8.34207 27.434 10.7475 28.7197 13.3663 29.2406C15.985 29.7615 18.6994 29.4942 21.1662 28.4724C23.633 27.4506 25.7414 25.7203 27.2248 23.5002C28.7082 21.2801 29.5 18.67 29.5 16C29.496 12.4208 28.0724 8.98933 25.5416 6.45844C23.0107 3.92756 19.5792 2.50397 16 2.5ZM17.5 26.3913V19.5H20C20.3978 19.5 20.7794 19.342 21.0607 19.0607C21.342 18.7794 21.5 18.3978 21.5 18C21.5 17.6022 21.342 17.2206 21.0607 16.9393C20.7794 16.658 20.3978 16.5 20 16.5H17.5V14C17.5 13.6022 17.658 13.2206 17.9393 12.9393C18.2207 12.658 18.6022 12.5 19 12.5H21C21.3978 12.5 21.7794 12.342 22.0607 12.0607C22.342 11.7794 22.5 11.3978 22.5 11C22.5 10.6022 22.342 10.2206 22.0607 9.93934C21.7794 9.65804 21.3978 9.5 21 9.5H19C17.8065 9.5 16.6619 9.97411 15.818 10.818C14.9741 11.6619 14.5 12.8065 14.5 14V16.5H12C11.6022 16.5 11.2206 16.658 10.9393 16.9393C10.658 17.2206 10.5 17.6022 10.5 18C10.5 18.3978 10.658 18.7794 10.9393 19.0607C11.2206 19.342 11.6022 19.5 12 19.5H14.5V26.3913C11.8726 26.012 9.4864 24.6517 7.82156 22.584C6.15673 20.5163 5.33686 17.8948 5.52696 15.247C5.71707 12.5992 6.90303 10.1217 8.84617 8.31307C10.7893 6.50444 13.3454 5.49895 16 5.49895C18.6546 5.49895 21.2107 6.50444 23.1538 8.31307C25.097 10.1217 26.2829 12.5992 26.473 15.247C26.6632 17.8948 25.8433 20.5163 24.1784 22.584C22.5136 24.6517 20.1274 26.012 17.5 26.3913Z" fill="#233780"/>
</svg>
