<svg width="32" height="32" viewBox="0 0 32 32" fill="none" xmlns="http://www.w3.org/2000/svg">
<path d="M16 10C14.8133 10 13.6533 10.3519 12.6666 11.0112C11.6799 11.6705 10.9108 12.6075 10.4567 13.7039C10.0026 14.8003 9.88378 16.0067 10.1153 17.1705C10.3468 18.3344 10.9182 19.4035 11.7574 20.2426C12.5965 21.0818 13.6656 21.6532 14.8295 21.8847C15.9933 22.1162 17.1997 21.9974 18.2961 21.5433C19.3925 21.0892 20.3295 20.3201 20.9888 19.3334C21.6481 18.3467 22 17.1867 22 16C21.9983 14.4092 21.3657 12.884 20.2408 11.7592C19.116 10.6343 17.5908 10.0017 16 10ZM16 19C15.4067 19 14.8266 18.8241 14.3333 18.4944C13.8399 18.1648 13.4554 17.6962 13.2284 17.1481C13.0013 16.5999 12.9419 15.9967 13.0576 15.4147C13.1734 14.8328 13.4591 14.2982 13.8787 13.8787C14.2982 13.4591 14.8328 13.1734 15.4147 13.0576C15.9967 12.9419 16.5999 13.0013 17.1481 13.2284C17.6962 13.4554 18.1648 13.8399 18.4944 14.3333C18.8241 14.8266 19 15.4067 19 16C19 16.7956 18.6839 17.5587 18.1213 18.1213C17.5587 18.6839 16.7956 19 16 19ZM22 2.5H10C8.01159 2.50232 6.10528 3.29324 4.69926 4.69926C3.29324 6.10528 2.50232 8.01159 2.5 10V22C2.50232 23.9884 3.29324 25.8947 4.69926 27.3007C6.10528 28.7068 8.01159 29.4977 10 29.5H22C23.9884 29.4977 25.8947 28.7068 27.3007 27.3007C28.7068 25.8947 29.4977 23.9884 29.5 22V10C29.4977 8.01159 28.7068 6.10528 27.3007 4.69926C25.8947 3.29324 23.9884 2.50232 22 2.5ZM26.5 22C26.5 23.1935 26.0259 24.3381 25.182 25.182C24.3381 26.0259 23.1935 26.5 22 26.5H10C8.80653 26.5 7.66193 26.0259 6.81802 25.182C5.97411 24.3381 5.5 23.1935 5.5 22V10C5.5 8.80653 5.97411 7.66193 6.81802 6.81802C7.66193 5.97411 8.80653 5.5 10 5.5H22C23.1935 5.5 24.3381 5.97411 25.182 6.81802C26.0259 7.66193 26.5 8.80653 26.5 10V22ZM24.5 9.5C24.5 9.89556 24.3827 10.2822 24.1629 10.6111C23.9432 10.94 23.6308 11.1964 23.2654 11.3478C22.8999 11.4991 22.4978 11.5387 22.1098 11.4616C21.7219 11.3844 21.3655 11.1939 21.0858 10.9142C20.8061 10.6345 20.6156 10.2781 20.5384 9.89018C20.4613 9.50222 20.5009 9.10009 20.6522 8.73463C20.8036 8.36918 21.06 8.05682 21.3889 7.83706C21.7178 7.6173 22.1044 7.5 22.5 7.5C23.0304 7.5 23.5391 7.71071 23.9142 8.08579C24.2893 8.46086 24.5 8.96957 24.5 9.5Z" fill="#233780"/>
</svg>
