<svg width="18" height="18" viewBox="0 0 18 18" fill="none" xmlns="http://www.w3.org/2000/svg">
<path d="M10.0003 4.99999C12.1033 4.99999 13.0003 5.89699 13.0003 7.99999H15.0003C15.0003 4.77499 13.2253 2.99999 10.0003 2.99999V4.99999ZM13.4223 10.443C13.2301 10.2683 12.9776 10.1752 12.7181 10.1832C12.4585 10.1912 12.2123 10.2998 12.0313 10.486L9.63828 12.947C9.06228 12.837 7.90428 12.476 6.71228 11.287C5.52028 10.094 5.15928 8.93299 5.05228 8.361L7.51128 5.96699C7.69769 5.78612 7.80642 5.53982 7.81444 5.2802C7.82247 5.02059 7.72917 4.76804 7.55428 4.57599L3.85928 0.512995C3.68432 0.320352 3.44116 0.203499 3.18143 0.187255C2.92171 0.17101 2.66588 0.256653 2.46828 0.425995L0.298282 2.28699C0.125393 2.46051 0.0222015 2.69145 0.00828196 2.93599C-0.00671804 3.18599 -0.292718 9.108 4.29928 13.702C8.30528 17.707 13.3233 18 14.7053 18C14.9073 18 15.0313 17.994 15.0643 17.992C15.3088 17.9783 15.5396 17.8747 15.7123 17.701L17.5723 15.53C17.7417 15.3325 17.8276 15.0768 17.8115 14.817C17.7954 14.5573 17.6788 14.3141 17.4863 14.139L13.4223 10.443Z" fill="black"/>
</svg>
