<svg width="22" height="22" viewBox="0 0 22 22" fill="none" xmlns="http://www.w3.org/2000/svg">
<path d="M20.8654 4.72193C20.7598 4.59548 20.6278 4.49374 20.4786 4.42392C20.3294 4.3541 20.1667 4.3179 20.002 4.31787H5.18945L4.67664 1.49131C4.62946 1.23226 4.49291 0.997959 4.29077 0.829222C4.08863 0.660485 3.8337 0.567999 3.57039 0.567871H1.25195C0.953584 0.567871 0.667436 0.686398 0.456458 0.897376C0.24548 1.10835 0.126953 1.3945 0.126953 1.69287C0.126953 1.99124 0.24548 2.27739 0.456458 2.48837C0.667436 2.69934 0.953584 2.81787 1.25195 2.81787H2.63102L4.96633 15.6616C5.02903 16.0028 5.15871 16.3281 5.34789 16.6188C5.01297 17.0107 4.78468 17.4823 4.68504 17.9881C4.5854 18.4939 4.61778 19.0168 4.77905 19.5064C4.94033 19.9961 5.22505 20.4359 5.60576 20.7834C5.98647 21.131 6.45033 21.3746 6.95258 21.4908C7.45484 21.6069 7.97855 21.5917 8.4732 21.4465C8.96785 21.3014 9.41675 21.0312 9.7766 20.6621C10.1365 20.2929 10.3951 19.8373 10.5276 19.3391C10.6602 18.8409 10.6621 18.317 10.5332 17.8179H13.7207C13.5643 18.4236 13.6012 19.0631 13.8262 19.6468C14.0512 20.2306 14.453 20.7293 14.9755 21.0734C15.498 21.4175 16.115 21.5896 16.7401 21.5657C17.3653 21.5418 17.9673 21.323 18.462 20.94C18.9566 20.5571 19.3192 20.029 19.4989 19.4298C19.6787 18.8306 19.6666 18.1902 19.4644 17.5982C19.2622 17.0061 18.8799 16.4922 18.3712 16.1281C17.8624 15.7641 17.2526 15.5682 16.627 15.5679H7.54914C7.46147 15.5678 7.3766 15.537 7.30929 15.4808C7.24198 15.4246 7.19648 15.3466 7.1807 15.2604L6.9632 14.0679H17.3863C18.0012 14.0679 18.5966 13.852 19.0686 13.458C19.5406 13.0639 19.8593 12.5166 19.9691 11.9116L21.1091 5.6435C21.1385 5.48141 21.1318 5.31486 21.0897 5.15562C21.0476 4.99638 20.971 4.84833 20.8654 4.72193ZM8.37695 18.5679C8.37695 18.7162 8.33297 18.8612 8.25056 18.9845C8.16814 19.1079 8.05101 19.204 7.91397 19.2608C7.77692 19.3175 7.62612 19.3324 7.48063 19.3035C7.33515 19.2745 7.20151 19.2031 7.09662 19.0982C6.99173 18.9933 6.9203 18.8597 6.89136 18.7142C6.86242 18.5687 6.87728 18.4179 6.93404 18.2809C6.99081 18.1438 7.08694 18.0267 7.21027 17.9443C7.33361 17.8619 7.47862 17.8179 7.62695 17.8179C7.82586 17.8179 8.01663 17.8969 8.15728 18.0375C8.29793 18.1782 8.37695 18.369 8.37695 18.5679ZM16.627 19.3179C16.4786 19.3179 16.3336 19.2739 16.2103 19.1915C16.0869 19.1091 15.9908 18.9919 15.934 18.8549C15.8773 18.7178 15.8624 18.567 15.8914 18.4216C15.9203 18.2761 15.9917 18.1424 16.0966 18.0375C16.2015 17.9327 16.3351 17.8612 16.4806 17.8323C16.6261 17.8033 16.7769 17.8182 16.914 17.875C17.051 17.9317 17.1681 18.0279 17.2506 18.1512C17.333 18.2745 17.377 18.4195 17.377 18.5679C17.377 18.7668 17.2979 18.9576 17.1573 19.0982C17.0166 19.2389 16.8259 19.3179 16.627 19.3179ZM17.752 11.5104C17.7363 11.5961 17.6912 11.6738 17.6244 11.7299C17.5577 11.786 17.4735 11.8171 17.3863 11.8179H6.55445L5.60008 6.56787H18.6538L17.752 11.5104Z" fill="black"/>
</svg>
