<svg width="193" height="193" viewBox="0 0 193 193" fill="none" xmlns="http://www.w3.org/2000/svg">
<path d="M107.579 2.52421C108.215 0.112525 111.774 0.612168 111.721 3.10564L111.167 28.9899C110.447 62.6445 132.882 92.4081 165.434 100.983L190.47 107.579C192.882 108.215 192.382 111.773 189.888 111.72L164.004 111.167C130.35 110.447 100.586 132.882 92.0108 165.434L85.4154 190.47C84.7798 192.882 81.221 192.382 81.2741 189.888L81.8276 164.004C82.5473 130.35 60.1122 100.586 27.5605 92.0106L2.52441 85.4151C0.112768 84.7795 0.612411 81.2207 3.10588 81.2738L28.9901 81.8273C62.6448 82.5471 92.4084 60.112 100.984 27.5602L107.579 2.52421Z" fill="#FED676" stroke="black"/>
</svg>
