<svg width="13" height="14" viewBox="0 0 13 14" fill="none" xmlns="http://www.w3.org/2000/svg">
<g clip-path="url(#clip0_259_362)">
<path fill-rule="evenodd" clip-rule="evenodd" d="M0 7.32411C0 5.56827 0.684819 3.88436 1.90381 2.6428C3.12279 1.40124 4.77609 0.703735 6.5 0.703735C8.22391 0.703735 9.87721 1.40124 11.0962 2.6428C12.3152 3.88436 13 5.56827 13 7.32411C13 9.07994 12.3152 10.7639 11.0962 12.0054C9.87721 13.247 8.22391 13.9445 6.5 13.9445C4.77609 13.9445 3.12279 13.247 1.90381 12.0054C0.684819 10.7639 0 9.07994 0 7.32411H0ZM6.12907 10.1576L9.87133 5.39272L9.19533 4.84191L6.00427 8.90328L3.744 6.98514L3.18933 7.66307L6.12907 10.1585V10.1576Z" fill="black"/>
</g>
<defs>
<clipPath id="clip0_259_362">
<rect width="13" height="13.2407" fill="white" transform="translate(0 0.703735)"/>
</clipPath>
</defs>
</svg>
