<svg width="18" height="18" viewBox="0 0 18 18" fill="none" xmlns="http://www.w3.org/2000/svg">
<g clip-path="url(#clip0_195_749)">
<path d="M16.5797 0.762988C15.8098 -0.0069336 14.5652 -0.0069336 13.7953 0.762988L12.7371 1.81768L16.1789 5.25947L17.2371 4.20127C18.007 3.43135 18.007 2.18682 17.2371 1.41689L16.5797 0.762988ZM6.06094 8.49736C5.84648 8.71182 5.68125 8.97549 5.58633 9.26729L4.5457 12.3892C4.44375 12.6915 4.52461 13.0255 4.74961 13.254C4.97461 13.4825 5.30859 13.5599 5.61445 13.4579L8.73633 12.4173C9.02461 12.3224 9.28828 12.1571 9.50625 11.9427L15.3879 6.05752L11.9426 2.61221L6.06094 8.49736ZM3.375 2.2501C1.51172 2.2501 0 3.76182 0 5.6251V14.6251C0 16.4884 1.51172 18.0001 3.375 18.0001H12.375C14.2383 18.0001 15.75 16.4884 15.75 14.6251V11.2501C15.75 10.6278 15.2473 10.1251 14.625 10.1251C14.0027 10.1251 13.5 10.6278 13.5 11.2501V14.6251C13.5 15.2474 12.9973 15.7501 12.375 15.7501H3.375C2.75273 15.7501 2.25 15.2474 2.25 14.6251V5.6251C2.25 5.00283 2.75273 4.5001 3.375 4.5001H6.75C7.37227 4.5001 7.875 3.99736 7.875 3.3751C7.875 2.75283 7.37227 2.2501 6.75 2.2501H3.375Z" fill="#1F4386"/>
</g>
<defs>
<clipPath id="clip0_195_749">
<rect width="18" height="18" fill="white"/>
</clipPath>
</defs>
</svg>
