<svg width="14" height="17" viewBox="0 0 14 17" fill="none" xmlns="http://www.w3.org/2000/svg">
<g clip-path="url(#clip0_195_751)">
<path d="M7 0C5.47604 0 4.17812 0.886523 3.70052 2.125H2.33333C1.04635 2.125 0 3.07793 0 4.25V14.875C0 16.0471 1.04635 17 2.33333 17H11.6667C12.9536 17 14 16.0471 14 14.875V4.25C14 3.07793 12.9536 2.125 11.6667 2.125H10.2995C9.82187 0.886523 8.52396 0 7 0ZM7 2.125C7.30942 2.125 7.60616 2.23694 7.82496 2.4362C8.04375 2.63546 8.16667 2.90571 8.16667 3.1875C8.16667 3.46929 8.04375 3.73954 7.82496 3.9388C7.60616 4.13806 7.30942 4.25 7 4.25C6.69058 4.25 6.39383 4.13806 6.17504 3.9388C5.95625 3.73954 5.83333 3.46929 5.83333 3.1875C5.83333 2.90571 5.95625 2.63546 6.17504 2.4362C6.39383 2.23694 6.69058 2.125 7 2.125ZM3.85729 7.61348C4.14531 6.87305 4.91823 6.375 5.78229 6.375H7.90781C9.18021 6.375 10.2083 7.31465 10.2083 8.47012C10.2083 9.22051 9.76719 9.91445 9.0526 10.2896L7.875 10.9039C7.86771 11.3355 7.4776 11.6875 7 11.6875C6.5151 11.6875 6.125 11.3322 6.125 10.8906V10.4424C6.125 10.1568 6.29271 9.89453 6.56615 9.75176L8.18125 8.9084C8.3526 8.81875 8.45833 8.65273 8.45833 8.47344C8.45833 8.19453 8.21042 7.97207 7.90781 7.97207H5.78229C5.65833 7.97207 5.54896 8.0418 5.50885 8.14805L5.49427 8.18789C5.33385 8.60293 4.83073 8.81875 4.37865 8.67266C3.92656 8.52656 3.68594 8.06836 3.84635 7.65664L3.86094 7.6168L3.85729 7.61348ZM5.83333 13.8125C5.83333 13.5307 5.95625 13.2605 6.17504 13.0612C6.39383 12.8619 6.69058 12.75 7 12.75C7.30942 12.75 7.60616 12.8619 7.82496 13.0612C8.04375 13.2605 8.16667 13.5307 8.16667 13.8125C8.16667 14.0943 8.04375 14.3645 7.82496 14.5638C7.60616 14.7631 7.30942 14.875 7 14.875C6.69058 14.875 6.39383 14.7631 6.17504 14.5638C5.95625 14.3645 5.83333 14.0943 5.83333 13.8125Z" fill="#1F4386"/>
</g>
<defs>
<clipPath id="clip0_195_751">
<rect width="14" height="17" fill="white"/>
</clipPath>
</defs>
</svg>
