<svg width="19" height="19" viewBox="0 0 19 19" fill="none" xmlns="http://www.w3.org/2000/svg">
<g clip-path="url(#clip0_204_761)">
<path d="M6.25304 2.67168L9.5001 6.12285L12.7472 2.67168H6.25304ZM14.2464 3.67734L11.5597 6.53105H16.3468L14.2464 3.67734ZM16.1019 8.3123H9.5001H2.89835L9.5001 15.5969L16.1019 8.3123ZM2.65343 6.53105H7.44054L4.75382 3.67734L2.65343 6.53105ZM18.77 8.01914L10.1607 17.5191C9.99366 17.7047 9.75245 17.8123 9.5001 17.8123C9.24776 17.8123 9.01026 17.7047 8.83956 17.5191L0.230184 8.01914C-0.0555586 7.70371 -0.0778243 7.23242 0.174519 6.89102L4.33077 1.25039C4.49776 1.02402 4.76495 0.886719 5.04698 0.886719H13.9532C14.2353 0.886719 14.5024 1.02031 14.6694 1.25039L18.8257 6.89102C19.078 7.23242 19.0521 7.70371 18.77 8.01914Z" fill="#1F4386"/>
</g>
<defs>
<clipPath id="clip0_204_761">
<rect width="19" height="19" fill="white"/>
</clipPath>
</defs>
</svg>
