<svg width="17" height="17" viewBox="0 0 17 17" fill="none" xmlns="http://www.w3.org/2000/svg">
<g clip-path="url(#clip0_195_747)">
<path d="M8.5 1.59375C4.68496 1.59375 1.59375 4.68496 1.59375 8.5V9.82812C1.59375 10.2697 1.23848 10.625 0.796875 10.625C0.355273 10.625 0 10.2697 0 9.82812V8.5C0 3.80508 3.80508 0 8.5 0C13.1949 0 17 3.80508 17 8.5V13.2846C17 14.8982 15.6918 16.2064 14.0748 16.2064L10.4125 16.2031C10.1369 16.6779 9.62227 17 9.03125 17H7.96875C7.08887 17 6.375 16.2861 6.375 15.4062C6.375 14.5264 7.08887 13.8125 7.96875 13.8125H9.03125C9.62227 13.8125 10.1369 14.1346 10.4125 14.6094L14.0781 14.6127C14.8119 14.6127 15.4062 14.0184 15.4062 13.2846V8.5C15.4062 4.68496 12.315 1.59375 8.5 1.59375ZM4.78125 6.90625H5.3125C5.9002 6.90625 6.375 7.38105 6.375 7.96875V11.6875C6.375 12.2752 5.9002 12.75 5.3125 12.75H4.78125C3.60918 12.75 2.65625 11.7971 2.65625 10.625V9.03125C2.65625 7.85918 3.60918 6.90625 4.78125 6.90625ZM12.2188 6.90625C13.3908 6.90625 14.3438 7.85918 14.3438 9.03125V10.625C14.3438 11.7971 13.3908 12.75 12.2188 12.75H11.6875C11.0998 12.75 10.625 12.2752 10.625 11.6875V7.96875C10.625 7.38105 11.0998 6.90625 11.6875 6.90625H12.2188Z" fill="#1F4386"/>
</g>
<defs>
<clipPath id="clip0_195_747">
<rect width="17" height="17" fill="white"/>
</clipPath>
</defs>
</svg>
