<svg width="19" height="16" viewBox="0 0 19 16" fill="none" xmlns="http://www.w3.org/2000/svg">
<g clip-path="url(#clip0_195_757)">
<path d="M18.9934 7.98438C18.9934 8.54688 18.4986 8.9875 17.9378 8.9875H16.8823L16.9054 13.9937C16.9054 14.0781 16.8988 14.1625 16.8889 14.2469V14.75C16.8889 15.4406 16.2984 16 15.5694 16H15.0417C15.0054 16 14.9691 16 14.9328 15.9969C14.8866 16 14.8405 16 14.7943 16H13.7222H12.9306C12.2016 16 11.6111 15.4406 11.6111 14.75V14V12C11.6111 11.4469 11.1394 11 10.5556 11H8.44444C7.86059 11 7.38889 11.4469 7.38889 12V14V14.75C7.38889 15.4406 6.79844 16 6.06944 16H5.27778H4.22552C4.17604 16 4.12656 15.9969 4.07708 15.9937C4.0375 15.9969 3.99792 16 3.95833 16H3.43056C2.70156 16 2.11111 15.4406 2.11111 14.75V11.25C2.11111 11.2219 2.11111 11.1906 2.11441 11.1625V8.9875H1.05556C0.461806 8.9875 0 8.55 0 7.98438C0 7.70312 0.0989583 7.45312 0.329861 7.23438L8.7875 0.25C9.0184 0.03125 9.28229 0 9.51319 0C9.7441 0 10.008 0.0625 10.2059 0.21875L18.6306 7.23438C18.8944 7.45312 19.0264 7.70312 18.9934 7.98438Z" fill="#1F4386"/>
</g>
<defs>
<clipPath id="clip0_195_757">
<rect width="19" height="16" fill="white"/>
</clipPath>
</defs>
</svg>
