<svg width="15" height="17" viewBox="0 0 15 17" fill="none" xmlns="http://www.w3.org/2000/svg">
<path d="M13.9286 0C13.3929 0 9.64286 1.0625 9.64286 5.84375V9.5625C9.64286 10.7346 10.6038 11.6875 11.7857 11.6875H12.8571V15.9375C12.8571 16.5252 13.3359 17 13.9286 17C14.5212 17 15 16.5252 15 15.9375V11.6875V7.96875V1.0625C15 0.474805 14.5212 0 13.9286 0ZM2.14286 0.53125C2.14286 0.258984 1.93862 0.0332031 1.66406 0.00332031C1.38951 -0.0265625 1.14509 0.152734 1.08482 0.415039L0.0703125 4.94063C0.0234375 5.1498 0 5.3623 0 5.5748C0 7.09883 1.17522 8.35059 2.67857 8.48672V15.9375C2.67857 16.5252 3.15737 17 3.75 17C4.34263 17 4.82143 16.5252 4.82143 15.9375V8.48672C6.32478 8.35059 7.5 7.09883 7.5 5.5748C7.5 5.3623 7.47656 5.1498 7.42969 4.94063L6.41518 0.415039C6.35491 0.149414 6.10379 -0.0265625 5.83259 0.00332031C5.56138 0.0332031 5.35714 0.258984 5.35714 0.53125V4.98711C5.35714 5.16641 5.20982 5.3125 5.02902 5.3125C4.85826 5.3125 4.71763 5.18301 4.70089 5.01367L4.28237 0.484766C4.25893 0.20918 4.0279 0 3.75 0C3.4721 0 3.24107 0.20918 3.21763 0.484766L2.80246 5.01367C2.78571 5.18301 2.64509 5.3125 2.47433 5.3125C2.29353 5.3125 2.14621 5.16641 2.14621 4.98711V0.53125H2.14286ZM3.76004 5.57812H3.75H3.73996L3.75 5.55488L3.76004 5.57812Z" fill="#1F4386"/>
</svg>
